# xmcd
#
# Track frame offsets:
#	150
#	16843
#	26417
#	42203
#	50391
#	67274
#	78627
#	93691
#	106508
#	123254
#
# Disc length: 1814 seconds
#
# Revision: 1
# Processed by: cddbd v1.5.2PL0 Copyright (c) Steve Scherf et al.
# Submitted via: EasyCDDAExtractor 7.0.3.1
#
DISCID=7807140a
DTITLE=Porter Wagoner - King of Country Gospel
DYEAR=2004
DGENRE=Country
TTITLE0=You Got to Walk That Lonesome Valley
TTITLE1=Where the Roses Never Fade
TTITLE2=Will There Be Any Stars in My Crown
TTITLE3=Old Camp Meeting Time
TTITLE4=I Thought of God
TTITLE5=When the Roll Is Called Up Yonder
TTITLE6=I Won't Have to Cross Jordan Alone
TTITLE7=Just Over in the Gloryland
TTITLE8=Angel Band
TTITLE9=Life's Railway to Heaven
EXTD=
EXTT0=
EXTT1=
EXTT2=
EXTT3=
EXTT4=
EXTT5=
EXTT6=
EXTT7=
EXTT8=
EXTT9=
PLAYORDER=
